<mxfile host="app.diagrams.net" agent="Mozilla/5.0 (Macintosh; Intel Mac OS X 10_15_7) AppleWebKit/605.1.15 (KHTML, like Gecko) Version/18.5 Safari/605.1.15" version="27.1.6">
  <diagram name="Strona-1" id="QfaWN1Rww1OvPWdVs5Kc">
    <mxGraphModel dx="946" dy="547" grid="1" gridSize="10" guides="1" tooltips="1" connect="1" arrows="1" fold="1" page="1" pageScale="1" pageWidth="2339" pageHeight="3300" math="0" shadow="0">
      <root>
        <mxCell id="0" />
        <mxCell id="1" parent="0" />
        <mxCell id="sTL4vqOEiGEFREoCvdAl-1" value="Clients" style="text;html=1;align=center;verticalAlign=middle;whiteSpace=wrap;rounded=0;" parent="1" vertex="1">
          <mxGeometry x="80" y="160" width="60" height="30" as="geometry" />
        </mxCell>
        <mxCell id="sTL4vqOEiGEFREoCvdAl-8" style="edgeStyle=orthogonalEdgeStyle;rounded=0;orthogonalLoop=1;jettySize=auto;html=1;" parent="1" source="sTL4vqOEiGEFREoCvdAl-2" target="sTL4vqOEiGEFREoCvdAl-6" edge="1">
          <mxGeometry relative="1" as="geometry" />
        </mxCell>
        <mxCell id="sTL4vqOEiGEFREoCvdAl-12" value="POST /v1/game/{gameId}/session" style="edgeLabel;html=1;align=center;verticalAlign=middle;resizable=0;points=[];" parent="sTL4vqOEiGEFREoCvdAl-8" vertex="1" connectable="0">
          <mxGeometry x="-0.48" y="1" relative="1" as="geometry">
            <mxPoint x="51" y="-14" as="offset" />
          </mxGeometry>
        </mxCell>
        <mxCell id="sTL4vqOEiGEFREoCvdAl-2" value="Netflix.com" style="rounded=0;whiteSpace=wrap;html=1;" parent="1" vertex="1">
          <mxGeometry x="60" y="200" width="90" height="50" as="geometry" />
        </mxCell>
        <mxCell id="sTL4vqOEiGEFREoCvdAl-9" style="edgeStyle=orthogonalEdgeStyle;rounded=0;orthogonalLoop=1;jettySize=auto;html=1;entryX=0;entryY=0.75;entryDx=0;entryDy=0;" parent="1" source="sTL4vqOEiGEFREoCvdAl-3" target="sTL4vqOEiGEFREoCvdAl-6" edge="1">
          <mxGeometry relative="1" as="geometry" />
        </mxCell>
        <mxCell id="sTL4vqOEiGEFREoCvdAl-13" value="POST /v1/game/{gameId}/session" style="edgeLabel;html=1;align=center;verticalAlign=middle;resizable=0;points=[];" parent="sTL4vqOEiGEFREoCvdAl-9" vertex="1" connectable="0">
          <mxGeometry x="-0.7063" y="-1" relative="1" as="geometry">
            <mxPoint x="74" y="14" as="offset" />
          </mxGeometry>
        </mxCell>
        <mxCell id="sTL4vqOEiGEFREoCvdAl-23" style="edgeStyle=orthogonalEdgeStyle;rounded=0;orthogonalLoop=1;jettySize=auto;html=1;entryX=0;entryY=0.5;entryDx=0;entryDy=0;" parent="1" source="sTL4vqOEiGEFREoCvdAl-3" target="sTL4vqOEiGEFREoCvdAl-17" edge="1">
          <mxGeometry relative="1" as="geometry">
            <mxPoint x="150" y="460" as="targetPoint" />
            <Array as="points">
              <mxPoint x="110" y="410" />
              <mxPoint x="700" y="410" />
            </Array>
          </mxGeometry>
        </mxCell>
        <mxCell id="sTL4vqOEiGEFREoCvdAl-24" value="Attack enemy&lt;div&gt;&lt;br&gt;&lt;/div&gt;" style="edgeLabel;html=1;align=center;verticalAlign=middle;resizable=0;points=[];" parent="sTL4vqOEiGEFREoCvdAl-23" vertex="1" connectable="0">
          <mxGeometry x="0.1906" y="5" relative="1" as="geometry">
            <mxPoint x="-7" y="5" as="offset" />
          </mxGeometry>
        </mxCell>
        <mxCell id="sTL4vqOEiGEFREoCvdAl-3" value="TV" style="rounded=0;whiteSpace=wrap;html=1;" parent="1" vertex="1">
          <mxGeometry x="60" y="290" width="100" height="70" as="geometry" />
        </mxCell>
        <mxCell id="sTL4vqOEiGEFREoCvdAl-15" style="edgeStyle=orthogonalEdgeStyle;rounded=0;orthogonalLoop=1;jettySize=auto;html=1;" parent="1" source="sTL4vqOEiGEFREoCvdAl-4" target="sTL4vqOEiGEFREoCvdAl-7" edge="1">
          <mxGeometry relative="1" as="geometry" />
        </mxCell>
        <mxCell id="sTL4vqOEiGEFREoCvdAl-16" value="Create game execution environment" style="edgeLabel;html=1;align=center;verticalAlign=middle;resizable=0;points=[];" parent="sTL4vqOEiGEFREoCvdAl-15" vertex="1" connectable="0">
          <mxGeometry x="-0.1216" y="-4" relative="1" as="geometry">
            <mxPoint as="offset" />
          </mxGeometry>
        </mxCell>
        <mxCell id="sTL4vqOEiGEFREoCvdAl-30" style="edgeStyle=orthogonalEdgeStyle;rounded=0;orthogonalLoop=1;jettySize=auto;html=1;entryX=0.5;entryY=1;entryDx=0;entryDy=0;" parent="1" source="sTL4vqOEiGEFREoCvdAl-4" target="sTL4vqOEiGEFREoCvdAl-29" edge="1">
          <mxGeometry relative="1" as="geometry" />
        </mxCell>
        <mxCell id="sTL4vqOEiGEFREoCvdAl-33" value="POST v1/assignGPU/{sessionId}" style="edgeLabel;html=1;align=center;verticalAlign=middle;resizable=0;points=[];" parent="sTL4vqOEiGEFREoCvdAl-30" vertex="1" connectable="0">
          <mxGeometry x="0.1153" y="-4" relative="1" as="geometry">
            <mxPoint as="offset" />
          </mxGeometry>
        </mxCell>
        <mxCell id="sTL4vqOEiGEFREoCvdAl-4" value="Game session orchestrator:&lt;div&gt;- creates game sesson&lt;/div&gt;&lt;div&gt;- CPU/GPU allocation&lt;/div&gt;&lt;div&gt;- session lifecycle control&lt;/div&gt;&lt;div&gt;- assign WebRTC endpoint&lt;/div&gt;" style="whiteSpace=wrap;html=1;aspect=fixed;" parent="1" vertex="1">
          <mxGeometry x="860" y="180" width="140" height="140" as="geometry" />
        </mxCell>
        <mxCell id="sTL4vqOEiGEFREoCvdAl-14" style="edgeStyle=orthogonalEdgeStyle;rounded=0;orthogonalLoop=1;jettySize=auto;html=1;entryX=0;entryY=0.5;entryDx=0;entryDy=0;" parent="1" source="sTL4vqOEiGEFREoCvdAl-5" target="sTL4vqOEiGEFREoCvdAl-4" edge="1">
          <mxGeometry relative="1" as="geometry" />
        </mxCell>
        <mxCell id="sTL4vqOEiGEFREoCvdAl-61" style="edgeStyle=orthogonalEdgeStyle;rounded=0;orthogonalLoop=1;jettySize=auto;html=1;" parent="1" source="sTL4vqOEiGEFREoCvdAl-5" target="sTL4vqOEiGEFREoCvdAl-62" edge="1">
          <mxGeometry relative="1" as="geometry">
            <mxPoint x="735" y="90" as="targetPoint" />
          </mxGeometry>
        </mxCell>
        <mxCell id="sTL4vqOEiGEFREoCvdAl-63" value="Iff user is DEV" style="edgeLabel;html=1;align=center;verticalAlign=middle;resizable=0;points=[];" parent="sTL4vqOEiGEFREoCvdAl-61" vertex="1" connectable="0">
          <mxGeometry x="-0.2133" y="6" relative="1" as="geometry">
            <mxPoint as="offset" />
          </mxGeometry>
        </mxCell>
        <mxCell id="sTL4vqOEiGEFREoCvdAl-5" value="API-Gateway" style="rounded=0;whiteSpace=wrap;html=1;" parent="1" vertex="1">
          <mxGeometry x="680" y="230" width="110" height="60" as="geometry" />
        </mxCell>
        <mxCell id="sTL4vqOEiGEFREoCvdAl-10" style="edgeStyle=orthogonalEdgeStyle;rounded=0;orthogonalLoop=1;jettySize=auto;html=1;entryX=0;entryY=0.5;entryDx=0;entryDy=0;" parent="1" source="sTL4vqOEiGEFREoCvdAl-6" target="sTL4vqOEiGEFREoCvdAl-5" edge="1">
          <mxGeometry relative="1" as="geometry" />
        </mxCell>
        <mxCell id="sTL4vqOEiGEFREoCvdAl-11" value="Route to nearest region&lt;div&gt;&lt;br&gt;&lt;/div&gt;" style="edgeLabel;html=1;align=center;verticalAlign=middle;resizable=0;points=[];" parent="sTL4vqOEiGEFREoCvdAl-10" vertex="1" connectable="0">
          <mxGeometry x="-0.4137" y="3" relative="1" as="geometry">
            <mxPoint x="25" y="3" as="offset" />
          </mxGeometry>
        </mxCell>
        <mxCell id="sTL4vqOEiGEFREoCvdAl-6" value="CloudFront + CDN" style="rounded=0;whiteSpace=wrap;html=1;" parent="1" vertex="1">
          <mxGeometry x="390" y="230" width="120" height="60" as="geometry" />
        </mxCell>
        <mxCell id="sTL4vqOEiGEFREoCvdAl-19" style="edgeStyle=orthogonalEdgeStyle;rounded=0;orthogonalLoop=1;jettySize=auto;html=1;entryX=1;entryY=0.5;entryDx=0;entryDy=0;" parent="1" source="sTL4vqOEiGEFREoCvdAl-7" target="sTL4vqOEiGEFREoCvdAl-18" edge="1">
          <mxGeometry relative="1" as="geometry" />
        </mxCell>
        <mxCell id="sTL4vqOEiGEFREoCvdAl-37" style="edgeStyle=orthogonalEdgeStyle;rounded=0;orthogonalLoop=1;jettySize=auto;html=1;entryX=1;entryY=0.5;entryDx=0;entryDy=0;" parent="1" source="sTL4vqOEiGEFREoCvdAl-7" target="sTL4vqOEiGEFREoCvdAl-29" edge="1">
          <mxGeometry relative="1" as="geometry">
            <Array as="points">
              <mxPoint x="1100" y="460" />
              <mxPoint x="1100" y="40" />
            </Array>
          </mxGeometry>
        </mxCell>
        <mxCell id="sTL4vqOEiGEFREoCvdAl-38" value="Use assigned GPU" style="edgeLabel;html=1;align=center;verticalAlign=middle;resizable=0;points=[];" parent="sTL4vqOEiGEFREoCvdAl-37" vertex="1" connectable="0">
          <mxGeometry x="0.1779" relative="1" as="geometry">
            <mxPoint y="-1" as="offset" />
          </mxGeometry>
        </mxCell>
        <mxCell id="sTL4vqOEiGEFREoCvdAl-64" style="edgeStyle=orthogonalEdgeStyle;rounded=0;orthogonalLoop=1;jettySize=auto;html=1;" parent="1" source="sTL4vqOEiGEFREoCvdAl-7" target="sTL4vqOEiGEFREoCvdAl-65" edge="1">
          <mxGeometry relative="1" as="geometry">
            <mxPoint x="1210" y="460" as="targetPoint" />
          </mxGeometry>
        </mxCell>
        <mxCell id="sTL4vqOEiGEFREoCvdAl-66" value="Send telemetry" style="edgeLabel;html=1;align=center;verticalAlign=middle;resizable=0;points=[];" parent="sTL4vqOEiGEFREoCvdAl-64" vertex="1" connectable="0">
          <mxGeometry x="-0.5181" relative="1" as="geometry">
            <mxPoint as="offset" />
          </mxGeometry>
        </mxCell>
        <mxCell id="sTL4vqOEiGEFREoCvdAl-7" value="As a docker container&lt;div&gt;- with input capturer&amp;nbsp;&lt;/div&gt;&lt;div&gt;- media pipeline&lt;/div&gt;" style="whiteSpace=wrap;html=1;aspect=fixed;" parent="1" vertex="1">
          <mxGeometry x="900" y="410" width="100" height="100" as="geometry" />
        </mxCell>
        <mxCell id="sTL4vqOEiGEFREoCvdAl-22" style="edgeStyle=orthogonalEdgeStyle;rounded=0;orthogonalLoop=1;jettySize=auto;html=1;entryX=0;entryY=0.25;entryDx=0;entryDy=0;" parent="1" source="sTL4vqOEiGEFREoCvdAl-17" target="sTL4vqOEiGEFREoCvdAl-7" edge="1">
          <mxGeometry relative="1" as="geometry" />
        </mxCell>
        <mxCell id="sTL4vqOEiGEFREoCvdAl-17" value="Input capturer&lt;div&gt;- integration with browser and smartTV sdk&lt;/div&gt;" style="rounded=0;whiteSpace=wrap;html=1;" parent="1" vertex="1">
          <mxGeometry x="700" y="370" width="100" height="70" as="geometry" />
        </mxCell>
        <mxCell id="sTL4vqOEiGEFREoCvdAl-18" value="Media pipeline&lt;div&gt;- graphic and sound&lt;/div&gt;&lt;div&gt;- adaptive resolution and bitrate&lt;/div&gt;&lt;div&gt;- webRTC&lt;/div&gt;" style="rounded=0;whiteSpace=wrap;html=1;" parent="1" vertex="1">
          <mxGeometry x="700" y="470" width="120" height="60" as="geometry" />
        </mxCell>
        <mxCell id="sTL4vqOEiGEFREoCvdAl-25" style="edgeStyle=orthogonalEdgeStyle;rounded=0;orthogonalLoop=1;jettySize=auto;html=1;entryX=0.352;entryY=1.027;entryDx=0;entryDy=0;entryPerimeter=0;" parent="1" source="sTL4vqOEiGEFREoCvdAl-18" target="sTL4vqOEiGEFREoCvdAl-3" edge="1">
          <mxGeometry relative="1" as="geometry" />
        </mxCell>
        <mxCell id="sTL4vqOEiGEFREoCvdAl-26" value="Graphic and sound of enemy attack" style="edgeLabel;html=1;align=center;verticalAlign=middle;resizable=0;points=[];" parent="sTL4vqOEiGEFREoCvdAl-25" vertex="1" connectable="0">
          <mxGeometry x="-0.4709" y="2" relative="1" as="geometry">
            <mxPoint as="offset" />
          </mxGeometry>
        </mxCell>
        <mxCell id="sTL4vqOEiGEFREoCvdAl-29" value="GPU pool&lt;div&gt;- assign GPU to session&lt;/div&gt;" style="ellipse;whiteSpace=wrap;html=1;aspect=fixed;" parent="1" vertex="1">
          <mxGeometry x="890" width="80" height="80" as="geometry" />
        </mxCell>
        <mxCell id="sTL4vqOEiGEFREoCvdAl-42" style="edgeStyle=orthogonalEdgeStyle;rounded=0;orthogonalLoop=1;jettySize=auto;html=1;exitX=0.25;exitY=1;exitDx=0;exitDy=0;entryX=0.87;entryY=1.036;entryDx=0;entryDy=0;entryPerimeter=0;" parent="1" source="sTL4vqOEiGEFREoCvdAl-39" target="sTL4vqOEiGEFREoCvdAl-7" edge="1">
          <mxGeometry relative="1" as="geometry">
            <mxPoint x="1000" y="669.9999999999998" as="targetPoint" />
            <Array as="points">
              <mxPoint x="990" y="540" />
              <mxPoint x="987" y="540" />
            </Array>
          </mxGeometry>
        </mxCell>
        <mxCell id="sTL4vqOEiGEFREoCvdAl-43" value="loadGameSaves" style="edgeLabel;html=1;align=center;verticalAlign=middle;resizable=0;points=[];" parent="sTL4vqOEiGEFREoCvdAl-42" vertex="1" connectable="0">
          <mxGeometry x="-0.018" relative="1" as="geometry">
            <mxPoint as="offset" />
          </mxGeometry>
        </mxCell>
        <mxCell id="sTL4vqOEiGEFREoCvdAl-39" value="game-saver-service&lt;div&gt;- save game in s3 with userId and gameId&lt;/div&gt;" style="rounded=0;whiteSpace=wrap;html=1;direction=west;" parent="1" vertex="1">
          <mxGeometry x="900" y="690" width="120" height="60" as="geometry" />
        </mxCell>
        <mxCell id="sTL4vqOEiGEFREoCvdAl-40" style="edgeStyle=orthogonalEdgeStyle;rounded=0;orthogonalLoop=1;jettySize=auto;html=1;entryX=0.75;entryY=1;entryDx=0;entryDy=0;" parent="1" target="sTL4vqOEiGEFREoCvdAl-39" edge="1">
          <mxGeometry relative="1" as="geometry">
            <mxPoint x="899.9988235294118" y="510" as="sourcePoint" />
            <mxPoint x="919" y="680" as="targetPoint" />
            <Array as="points">
              <mxPoint x="920" y="510" />
              <mxPoint x="920" y="690" />
            </Array>
          </mxGeometry>
        </mxCell>
        <mxCell id="sTL4vqOEiGEFREoCvdAl-41" value="v1/saveGame/{gameId}/{userId}" style="edgeLabel;html=1;align=center;verticalAlign=middle;resizable=0;points=[];" parent="sTL4vqOEiGEFREoCvdAl-40" vertex="1" connectable="0">
          <mxGeometry x="-0.0319" y="2" relative="1" as="geometry">
            <mxPoint x="-12" y="-41" as="offset" />
          </mxGeometry>
        </mxCell>
        <mxCell id="sTL4vqOEiGEFREoCvdAl-47" style="edgeStyle=orthogonalEdgeStyle;rounded=0;orthogonalLoop=1;jettySize=auto;html=1;entryX=1;entryY=0.5;entryDx=0;entryDy=0;" parent="1" source="sTL4vqOEiGEFREoCvdAl-45" target="sTL4vqOEiGEFREoCvdAl-46" edge="1">
          <mxGeometry relative="1" as="geometry" />
        </mxCell>
        <mxCell id="sTL4vqOEiGEFREoCvdAl-48" value="Game upload process&lt;div&gt;- build&lt;/div&gt;&lt;div&gt;- configuration&lt;/div&gt;&lt;div&gt;- metadata&lt;/div&gt;" style="edgeLabel;html=1;align=center;verticalAlign=middle;resizable=0;points=[];" parent="sTL4vqOEiGEFREoCvdAl-47" vertex="1" connectable="0">
          <mxGeometry x="-0.2422" y="-4" relative="1" as="geometry">
            <mxPoint as="offset" />
          </mxGeometry>
        </mxCell>
        <mxCell id="sTL4vqOEiGEFREoCvdAl-45" value="GameStudio" style="shape=umlActor;verticalLabelPosition=bottom;verticalAlign=top;html=1;outlineConnect=0;" parent="1" vertex="1">
          <mxGeometry x="1860" y="130" width="30" height="60" as="geometry" />
        </mxCell>
        <mxCell id="sTL4vqOEiGEFREoCvdAl-50" style="edgeStyle=orthogonalEdgeStyle;rounded=0;orthogonalLoop=1;jettySize=auto;html=1;exitX=0;exitY=0.5;exitDx=0;exitDy=0;entryX=1;entryY=0.5;entryDx=0;entryDy=0;" parent="1" source="sTL4vqOEiGEFREoCvdAl-46" target="sTL4vqOEiGEFREoCvdAl-49" edge="1">
          <mxGeometry relative="1" as="geometry" />
        </mxCell>
        <mxCell id="sTL4vqOEiGEFREoCvdAl-59" style="edgeStyle=orthogonalEdgeStyle;rounded=0;orthogonalLoop=1;jettySize=auto;html=1;entryX=1;entryY=0.25;entryDx=0;entryDy=0;" parent="1" source="sTL4vqOEiGEFREoCvdAl-46" target="sTL4vqOEiGEFREoCvdAl-4" edge="1">
          <mxGeometry relative="1" as="geometry">
            <mxPoint x="1490" y="20" as="targetPoint" />
            <Array as="points">
              <mxPoint x="1590" y="80" />
              <mxPoint x="1491" y="80" />
              <mxPoint x="1491" y="90" />
              <mxPoint x="1030" y="90" />
              <mxPoint x="1030" y="215" />
            </Array>
          </mxGeometry>
        </mxCell>
        <mxCell id="sTL4vqOEiGEFREoCvdAl-60" value="Add game to catalog" style="edgeLabel;html=1;align=center;verticalAlign=middle;resizable=0;points=[];" parent="sTL4vqOEiGEFREoCvdAl-59" vertex="1" connectable="0">
          <mxGeometry x="0.0334" y="-7" relative="1" as="geometry">
            <mxPoint as="offset" />
          </mxGeometry>
        </mxCell>
        <mxCell id="sTL4vqOEiGEFREoCvdAl-46" value="GameBoardingService" style="rounded=0;whiteSpace=wrap;html=1;" parent="1" vertex="1">
          <mxGeometry x="1530" y="120" width="120" height="70" as="geometry" />
        </mxCell>
        <mxCell id="sTL4vqOEiGEFREoCvdAl-53" style="edgeStyle=orthogonalEdgeStyle;rounded=0;orthogonalLoop=1;jettySize=auto;html=1;entryX=0.599;entryY=1.007;entryDx=0;entryDy=0;entryPerimeter=0;" parent="1" source="sTL4vqOEiGEFREoCvdAl-49" target="sTL4vqOEiGEFREoCvdAl-46" edge="1">
          <mxGeometry relative="1" as="geometry">
            <mxPoint x="1500" y="310" as="targetPoint" />
            <Array as="points">
              <mxPoint x="1370" y="270" />
              <mxPoint x="1602" y="270" />
            </Array>
          </mxGeometry>
        </mxCell>
        <mxCell id="sTL4vqOEiGEFREoCvdAl-54" value="ValidationResult" style="edgeLabel;html=1;align=center;verticalAlign=middle;resizable=0;points=[];" parent="sTL4vqOEiGEFREoCvdAl-53" vertex="1" connectable="0">
          <mxGeometry x="-0.027" y="-3" relative="1" as="geometry">
            <mxPoint as="offset" />
          </mxGeometry>
        </mxCell>
        <mxCell id="sTL4vqOEiGEFREoCvdAl-49" value="Game validation process" style="shape=process;whiteSpace=wrap;html=1;backgroundOutline=1;" parent="1" vertex="1">
          <mxGeometry x="1310" y="130" width="120" height="60" as="geometry" />
        </mxCell>
        <mxCell id="sTL4vqOEiGEFREoCvdAl-62" value="&lt;div&gt;DEV Portal&lt;/div&gt;- Telemetry&lt;div&gt;- API to update build&lt;/div&gt;&lt;div&gt;&lt;br&gt;&lt;/div&gt;" style="whiteSpace=wrap;html=1;aspect=fixed;" parent="1" vertex="1">
          <mxGeometry x="600" y="30" width="80" height="80" as="geometry" />
        </mxCell>
        <mxCell id="sTL4vqOEiGEFREoCvdAl-65" value="Kafka and further processing" style="shape=process;whiteSpace=wrap;html=1;backgroundOutline=1;" parent="1" vertex="1">
          <mxGeometry x="1150" y="430" width="120" height="60" as="geometry" />
        </mxCell>
      </root>
    </mxGraphModel>
  </diagram>
</mxfile>
